<?xml version="1.0" encoding="UTF-8" standalone="no"?>
<!DOCTYPE svg PUBLIC "-//W3C//DTD SVG 1.1//EN"
 "http://www.w3.org/Graphics/SVG/1.1/DTD/svg11.dtd">
<!-- Generated by graphviz version 2.22.2 (20090313.1817)
 -->
<!-- Title: G Pages: 1 -->
<svg width="471pt" height="260pt"
 viewBox="0.00 0.00 471.00 260.00" xmlns="http://www.w3.org/2000/svg" xmlns:xlink="http://www.w3.org/1999/xlink">
<g id="graph1" class="graph" transform="scale(1 1) rotate(0) translate(4 256)">
<title>G</title>
<polygon fill="white" stroke="white" points="-4,5 -4,-256 468,-256 468,5 -4,5"/>
<!-- Mw3oQRGd4NOj55dLHkKhkXbsZc2tSBZ0FwEwak5w -->
<g id="node1" class="node"><title>Mw3oQRGd4NOj55dLHkKhkXbsZc2tSBZ0FwEwak5w</title>
<a xlink:href="../deadline1.html" xlink:title="deadline!">
<ellipse fill="none" stroke="black" cx="233" cy="-234" rx="55.0073" ry="18"/>
<text text-anchor="middle" x="233" y="-229.4" font-family="Times Roman,serif" font-size="14.00">deadline!</text>
</a>
</g>
<!-- DLH8tj9ptv04XktT8hsB9ZEmxdQeoQzti5rLsEtR -->
<g id="node2" class="node"><title>DLH8tj9ptv04XktT8hsB9ZEmxdQeoQzti5rLsEtR</title>
<a xlink:href="../deadline2.html" xlink:title="algorithms">
<ellipse fill="none" stroke="black" cx="169" cy="-162" rx="61.0447" ry="18"/>
<text text-anchor="middle" x="169" y="-157.4" font-family="Times Roman,serif" font-size="14.00">algorithms</text>
</a>
</g>
<!-- Mw3oQRGd4NOj55dLHkKhkXbsZc2tSBZ0FwEwak5w&#45;&gt;DLH8tj9ptv04XktT8hsB9ZEmxdQeoQzti5rLsEtR -->
<g id="edge2" class="edge"><title>Mw3oQRGd4NOj55dLHkKhkXbsZc2tSBZ0FwEwak5w&#45;&gt;DLH8tj9ptv04XktT8hsB9ZEmxdQeoQzti5rLsEtR</title>
<path fill="none" stroke="black" d="M217.507,-216.571C209.626,-207.704 199.905,-196.768 191.239,-187.019"/>
<polygon fill="black" stroke="black" points="193.831,-184.667 184.572,-179.518 188.599,-189.318 193.831,-184.667"/>
</g>
<!-- OYJ6ZC7ZfzDzcSUFWelcFQSZ1BpgAbDllpJuDJeh -->
<g id="node7" class="node"><title>OYJ6ZC7ZfzDzcSUFWelcFQSZ1BpgAbDllpJuDJeh</title>
<a xlink:href="../deadline3.html" xlink:title="intuition">
<ellipse fill="none" stroke="black" cx="297" cy="-162" rx="49.1393" ry="18"/>
<text text-anchor="middle" x="297" y="-157.4" font-family="Times Roman,serif" font-size="14.00">intuition</text>
</a>
</g>
<!-- Mw3oQRGd4NOj55dLHkKhkXbsZc2tSBZ0FwEwak5w&#45;&gt;OYJ6ZC7ZfzDzcSUFWelcFQSZ1BpgAbDllpJuDJeh -->
<g id="edge12" class="edge"><title>Mw3oQRGd4NOj55dLHkKhkXbsZc2tSBZ0FwEwak5w&#45;&gt;OYJ6ZC7ZfzDzcSUFWelcFQSZ1BpgAbDllpJuDJeh</title>
<path fill="none" stroke="black" d="M248.493,-216.571C256.432,-207.638 266.239,-196.606 274.953,-186.803"/>
<polygon fill="black" stroke="black" points="277.622,-189.068 281.65,-179.269 272.39,-184.418 277.622,-189.068"/>
</g>
<!-- K3LuGtQaA7JHh9CovCbmDOl74yjGqLXCRaBn6yxN -->
<g id="node3" class="node"><title>K3LuGtQaA7JHh9CovCbmDOl74yjGqLXCRaBn6yxN</title>
<a xlink:href="../deadline4.html" xlink:title="structure">
<ellipse fill="none" stroke="black" cx="53" cy="-90" rx="53.1641" ry="18"/>
<text text-anchor="middle" x="53" y="-85.4" font-family="Times Roman,serif" font-size="14.00">structure</text>
</a>
</g>
<!-- DLH8tj9ptv04XktT8hsB9ZEmxdQeoQzti5rLsEtR&#45;&gt;K3LuGtQaA7JHh9CovCbmDOl74yjGqLXCRaBn6yxN -->
<g id="edge4" class="edge"><title>DLH8tj9ptv04XktT8hsB9ZEmxdQeoQzti5rLsEtR&#45;&gt;K3LuGtQaA7JHh9CovCbmDOl74yjGqLXCRaBn6yxN</title>
<path fill="none" stroke="black" d="M142.678,-145.662C126.398,-135.557 105.315,-122.471 87.6813,-111.526"/>
<polygon fill="black" stroke="black" points="89.1606,-108.325 78.8184,-106.025 85.4691,-114.273 89.1606,-108.325"/>
</g>
<!-- IblpnP49bga1h3yAVZMDgSPpaw4IjQ3jS7kKhEc2 -->
<g id="node4" class="node"><title>IblpnP49bga1h3yAVZMDgSPpaw4IjQ3jS7kKhEc2</title>
<a xlink:href="../deadline5.html" xlink:title="material">
<ellipse fill="none" stroke="black" cx="174" cy="-90" rx="49.8134" ry="18"/>
<text text-anchor="middle" x="174" y="-85.4" font-family="Times Roman,serif" font-size="14.00">material</text>
</a>
</g>
<!-- DLH8tj9ptv04XktT8hsB9ZEmxdQeoQzti5rLsEtR&#45;&gt;IblpnP49bga1h3yAVZMDgSPpaw4IjQ3jS7kKhEc2 -->
<g id="edge6" class="edge"><title>DLH8tj9ptv04XktT8hsB9ZEmxdQeoQzti5rLsEtR&#45;&gt;IblpnP49bga1h3yAVZMDgSPpaw4IjQ3jS7kKhEc2</title>
<path fill="none" stroke="black" d="M170.262,-143.831C170.796,-136.131 171.432,-126.974 172.027,-118.417"/>
<polygon fill="black" stroke="black" points="175.52,-118.632 172.721,-108.413 168.537,-118.147 175.52,-118.632"/>
</g>
<!-- WdCVUFVj24i9QqrinujCqp5kUCMzp4Qlo8QbMvIj -->
<g id="node5" class="node"><title>WdCVUFVj24i9QqrinujCqp5kUCMzp4Qlo8QbMvIj</title>
<a xlink:href="../deadline6.html" xlink:title="harmonics">
<ellipse fill="none" stroke="black" cx="91" cy="-18" rx="59.2013" ry="18"/>
<text text-anchor="middle" x="91" y="-13.4" font-family="Times Roman,serif" font-size="14.00">harmonics</text>
</a>
</g>
<!-- IblpnP49bga1h3yAVZMDgSPpaw4IjQ3jS7kKhEc2&#45;&gt;WdCVUFVj24i9QqrinujCqp5kUCMzp4Qlo8QbMvIj -->
<g id="edge8" class="edge"><title>IblpnP49bga1h3yAVZMDgSPpaw4IjQ3jS7kKhEc2&#45;&gt;WdCVUFVj24i9QqrinujCqp5kUCMzp4Qlo8QbMvIj</title>
<path fill="none" stroke="black" d="M154.75,-73.3008C144.01,-63.985 130.449,-52.221 118.598,-41.9406"/>
<polygon fill="black" stroke="black" points="120.57,-39.0176 110.722,-35.1086 115.983,-44.3053 120.57,-39.0176"/>
</g>
<!-- F7GHp71UM2LR70XofJCYu8uZYgckX1sfMxWqjb6s -->
<g id="node6" class="node"><title>F7GHp71UM2LR70XofJCYu8uZYgckX1sfMxWqjb6s</title>
<a xlink:href="../deadline7.html" xlink:title="more algorithms">
<ellipse fill="none" stroke="black" cx="256" cy="-18" rx="88.048" ry="18"/>
<text text-anchor="middle" x="256" y="-13.4" font-family="Times Roman,serif" font-size="14.00">more algorithms</text>
</a>
</g>
<!-- IblpnP49bga1h3yAVZMDgSPpaw4IjQ3jS7kKhEc2&#45;&gt;F7GHp71UM2LR70XofJCYu8uZYgckX1sfMxWqjb6s -->
<g id="edge10" class="edge"><title>IblpnP49bga1h3yAVZMDgSPpaw4IjQ3jS7kKhEc2&#45;&gt;F7GHp71UM2LR70XofJCYu8uZYgckX1sfMxWqjb6s</title>
<path fill="none" stroke="black" d="M193.019,-73.3008C203.474,-64.12 216.638,-52.5615 228.224,-42.3885"/>
<polygon fill="black" stroke="black" points="230.735,-44.8413 235.941,-35.6132 226.117,-39.5812 230.735,-44.8413"/>
</g>
<!-- Bb5ju9m8SBPaP3IDhmSpthlWQr0OulAMMpcWVNNq -->
<g id="node8" class="node"><title>Bb5ju9m8SBPaP3IDhmSpthlWQr0OulAMMpcWVNNq</title>
<a xlink:href="../deadline8.html" xlink:title="reflect">
<ellipse fill="none" stroke="black" cx="292" cy="-90" rx="40.92" ry="18"/>
<text text-anchor="middle" x="292" y="-85.4" font-family="Times Roman,serif" font-size="14.00">reflect</text>
</a>
</g>
<!-- OYJ6ZC7ZfzDzcSUFWelcFQSZ1BpgAbDllpJuDJeh&#45;&gt;Bb5ju9m8SBPaP3IDhmSpthlWQr0OulAMMpcWVNNq -->
<g id="edge14" class="edge"><title>OYJ6ZC7ZfzDzcSUFWelcFQSZ1BpgAbDllpJuDJeh&#45;&gt;Bb5ju9m8SBPaP3IDhmSpthlWQr0OulAMMpcWVNNq</title>
<path fill="none" stroke="black" d="M295.738,-143.831C295.204,-136.131 294.568,-126.974 293.973,-118.417"/>
<polygon fill="black" stroke="black" points="297.463,-118.147 293.279,-108.413 290.48,-118.632 297.463,-118.147"/>
</g>
<!-- G9XoREygzcVaBST3CuMVQwwMSE5CYgBmGzJwCG9Z -->
<g id="node9" class="node"><title>G9XoREygzcVaBST3CuMVQwwMSE5CYgBmGzJwCG9Z</title>
<a xlink:href="../deadline9.html" xlink:title="algorithm">
<ellipse fill="none" stroke="black" cx="407" cy="-90" rx="55.8503" ry="18"/>
<text text-anchor="middle" x="407" y="-85.4" font-family="Times Roman,serif" font-size="14.00">algorithm</text>
</a>
</g>
<!-- OYJ6ZC7ZfzDzcSUFWelcFQSZ1BpgAbDllpJuDJeh&#45;&gt;G9XoREygzcVaBST3CuMVQwwMSE5CYgBmGzJwCG9Z -->
<g id="edge16" class="edge"><title>OYJ6ZC7ZfzDzcSUFWelcFQSZ1BpgAbDllpJuDJeh&#45;&gt;G9XoREygzcVaBST3CuMVQwwMSE5CYgBmGzJwCG9Z</title>
<path fill="none" stroke="black" d="M321.14,-146.199C336.543,-136.118 356.719,-122.911 373.643,-111.834"/>
<polygon fill="black" stroke="black" points="375.704,-114.668 382.154,-106.263 371.87,-108.811 375.704,-114.668"/>
</g>
</g>
</svg>
