<?xml version="1.0" encoding="UTF-8" standalone="no"?>
<!DOCTYPE svg PUBLIC "-//W3C//DTD SVG 1.1//EN"
 "http://www.w3.org/Graphics/SVG/1.1/DTD/svg11.dtd">
<!-- Generated by graphviz version 2.22.2 (20090313.1817)
 -->
<!-- Title: VYxK1anGyItAkVRIDSxmEkoNQoUpuqMvK7jTKIJW Pages: 1 -->
<svg width="228pt" height="260pt"
 viewBox="0.00 0.00 228.00 260.00" xmlns="http://www.w3.org/2000/svg" xmlns:xlink="http://www.w3.org/1999/xlink">
<g id="graph1" class="graph" transform="scale(1 1) rotate(0) translate(4 256)">
<title>VYxK1anGyItAkVRIDSxmEkoNQoUpuqMvK7jTKIJW</title>
<a xlink:href="bible.svg">
<polygon fill="white" stroke="white" points="-4,5 -4,-256 225,-256 225,5 -4,5"/>
</a>
<!-- isaac -->
<g id="node1" class="node"><title>isaac</title>
<ellipse fill="none" stroke="black" cx="143" cy="-162" rx="35.0527" ry="18"/>
<text text-anchor="middle" x="143" y="-157.4" font-family="Times Roman,serif" font-size="14.00">isaac</text>
</g>
<!-- jacob -->
<g id="node3" class="node"><title>jacob</title>
<ellipse fill="none" stroke="black" cx="99" cy="-90" rx="36.8951" ry="18"/>
<text text-anchor="middle" x="99" y="-85.4" font-family="Times Roman,serif" font-size="14.00">jacob</text>
</g>
<!-- isaac&#45;&gt;jacob -->
<g id="edge4" class="edge"><title>isaac&#45;&gt;jacob</title>
<path fill="none" stroke="black" d="M132.349,-144.571C127.106,-135.992 120.68,-125.476 114.873,-115.973"/>
<polygon fill="black" stroke="black" points="117.754,-113.976 109.553,-107.269 111.781,-117.627 117.754,-113.976"/>
</g>
<!-- esau -->
<g id="node6" class="node"><title>esau</title>
<ellipse fill="none" stroke="black" cx="187" cy="-90" rx="33.0404" ry="18"/>
<text text-anchor="middle" x="187" y="-85.4" font-family="Times Roman,serif" font-size="14.00">esau</text>
</g>
<!-- isaac&#45;&gt;esau -->
<g id="edge10" class="edge"><title>isaac&#45;&gt;esau</title>
<path fill="none" stroke="black" d="M153.651,-144.571C158.894,-135.992 165.32,-125.476 171.127,-115.973"/>
<polygon fill="black" stroke="black" points="174.219,-117.627 176.447,-107.269 168.246,-113.976 174.219,-117.627"/>
</g>
<!-- joseph -->
<g id="node2" class="node"><title>joseph</title>
<ellipse fill="none" stroke="black" cx="42" cy="-18" rx="41.7645" ry="18"/>
<text text-anchor="middle" x="42" y="-13.4" font-family="Times Roman,serif" font-size="14.00">joseph</text>
</g>
<!-- jacob&#45;&gt;joseph -->
<g id="edge6" class="edge"><title>jacob&#45;&gt;joseph</title>
<path fill="none" stroke="black" d="M85.4918,-72.937C78.496,-64.1003 69.8155,-53.1354 62.0538,-43.3311"/>
<polygon fill="black" stroke="black" points="64.7584,-41.1087 55.8072,-35.4407 59.2701,-45.4536 64.7584,-41.1087"/>
</g>
<!-- benjamin -->
<g id="node5" class="node"><title>benjamin</title>
<ellipse fill="none" stroke="black" cx="157" cy="-18" rx="55.0073" ry="18"/>
<text text-anchor="middle" x="157" y="-13.4" font-family="Times Roman,serif" font-size="14.00">benjamin</text>
</g>
<!-- jacob&#45;&gt;benjamin -->
<g id="edge8" class="edge"><title>jacob&#45;&gt;benjamin</title>
<path fill="none" stroke="black" d="M112.745,-72.937C119.864,-64.1003 128.696,-53.1354 136.594,-43.3311"/>
<polygon fill="black" stroke="black" points="139.403,-45.4239 142.951,-35.4407 133.952,-41.0326 139.403,-45.4239"/>
</g>
<!-- abraham -->
<g id="node4" class="node"><title>abraham</title>
<ellipse fill="none" stroke="black" cx="143" cy="-234" rx="53.1641" ry="18"/>
<text text-anchor="middle" x="143" y="-229.4" font-family="Times Roman,serif" font-size="14.00">abraham</text>
</g>
<!-- abraham&#45;&gt;isaac -->
<g id="edge2" class="edge"><title>abraham&#45;&gt;isaac</title>
<path fill="none" stroke="black" d="M143,-215.831C143,-208.131 143,-198.974 143,-190.417"/>
<polygon fill="black" stroke="black" points="146.5,-190.413 143,-180.413 139.5,-190.413 146.5,-190.413"/>
</g>
</g>
</svg>
