<?xml version="1.0" encoding="UTF-8" standalone="no"?>
<!DOCTYPE svg PUBLIC "-//W3C//DTD SVG 1.1//EN"
 "http://www.w3.org/Graphics/SVG/1.1/DTD/svg11.dtd">
<!-- Generated by graphviz version 2.22.2 (20090313.1817)
 -->
<!-- Title: G Pages: 1 -->
<svg width="628pt" height="44pt"
 viewBox="0.00 0.00 628.00 44.00" xmlns="http://www.w3.org/2000/svg" xmlns:xlink="http://www.w3.org/1999/xlink">
<g id="graph1" class="graph" transform="scale(1 1) rotate(0) translate(4 40)">
<title>G</title>
<polygon fill="white" stroke="white" points="-4,5 -4,-40 625,-40 625,5 -4,5"/>
<!-- F7GHp71UM2LR70XofJCYu8uZYgckX1sfMxWqjb6s -->
<g id="node1" class="node"><title>F7GHp71UM2LR70XofJCYu8uZYgckX1sfMxWqjb6s</title>
<ellipse fill="none" stroke="black" cx="531" cy="-18" rx="88.048" ry="18"/>
<text text-anchor="middle" x="531" y="-13.4" font-family="Times Roman,serif" font-size="14.00">more algorithms</text>
</g>
<!-- IblpnP49bga1h3yAVZMDgSPpaw4IjQ3jS7kKhEc2 -->
<g id="node2" class="node"><title>IblpnP49bga1h3yAVZMDgSPpaw4IjQ3jS7kKhEc2</title>
<ellipse fill="none" stroke="black" cx="355" cy="-18" rx="49.8134" ry="18"/>
<text text-anchor="middle" x="355" y="-13.4" font-family="Times Roman,serif" font-size="14.00">material</text>
</g>
<!-- IblpnP49bga1h3yAVZMDgSPpaw4IjQ3jS7kKhEc2&#45;&gt;F7GHp71UM2LR70XofJCYu8uZYgckX1sfMxWqjb6s -->
<g id="edge2" class="edge"><title>IblpnP49bga1h3yAVZMDgSPpaw4IjQ3jS7kKhEc2&#45;&gt;F7GHp71UM2LR70XofJCYu8uZYgckX1sfMxWqjb6s</title>
<path fill="none" stroke="black" d="M405.906,-18C414.242,-18 423.12,-18 432.154,-18"/>
<polygon fill="black" stroke="black" points="432.398,-21.5001 442.398,-18 432.398,-14.5001 432.398,-21.5001"/>
</g>
<!-- DLH8tj9ptv04XktT8hsB9ZEmxdQeoQzti5rLsEtR -->
<g id="node3" class="node"><title>DLH8tj9ptv04XktT8hsB9ZEmxdQeoQzti5rLsEtR</title>
<ellipse fill="none" stroke="black" cx="207" cy="-18" rx="61.0447" ry="18"/>
<text text-anchor="middle" x="207" y="-13.4" font-family="Times Roman,serif" font-size="14.00">algorithms</text>
</g>
<!-- DLH8tj9ptv04XktT8hsB9ZEmxdQeoQzti5rLsEtR&#45;&gt;IblpnP49bga1h3yAVZMDgSPpaw4IjQ3jS7kKhEc2 -->
<g id="edge4" class="edge"><title>DLH8tj9ptv04XktT8hsB9ZEmxdQeoQzti5rLsEtR&#45;&gt;IblpnP49bga1h3yAVZMDgSPpaw4IjQ3jS7kKhEc2</title>
<path fill="none" stroke="black" d="M268.052,-18C276.751,-18 285.696,-18 294.387,-18"/>
<polygon fill="black" stroke="black" points="294.442,-21.5001 304.442,-18 294.442,-14.5001 294.442,-21.5001"/>
</g>
<!-- Mw3oQRGd4NOj55dLHkKhkXbsZc2tSBZ0FwEwak5w -->
<g id="node4" class="node"><title>Mw3oQRGd4NOj55dLHkKhkXbsZc2tSBZ0FwEwak5w</title>
<ellipse fill="none" stroke="black" cx="55" cy="-18" rx="55.0073" ry="18"/>
<text text-anchor="middle" x="55" y="-13.4" font-family="Times Roman,serif" font-size="14.00">deadline!</text>
</g>
<!-- Mw3oQRGd4NOj55dLHkKhkXbsZc2tSBZ0FwEwak5w&#45;&gt;DLH8tj9ptv04XktT8hsB9ZEmxdQeoQzti5rLsEtR -->
<g id="edge6" class="edge"><title>Mw3oQRGd4NOj55dLHkKhkXbsZc2tSBZ0FwEwak5w&#45;&gt;DLH8tj9ptv04XktT8hsB9ZEmxdQeoQzti5rLsEtR</title>
<path fill="none" stroke="black" d="M110.305,-18C118.513,-18 127.068,-18 135.548,-18"/>
<polygon fill="black" stroke="black" points="135.826,-21.5001 145.826,-18 135.826,-14.5001 135.826,-21.5001"/>
</g>
</g>
</svg>
