<?xml version="1.0" encoding="UTF-8" standalone="no"?>
<!DOCTYPE svg PUBLIC "-//W3C//DTD SVG 1.1//EN"
 "http://www.w3.org/Graphics/SVG/1.1/DTD/svg11.dtd">
<!-- Generated by graphviz version 2.22.2 (20090313.1817)
 -->
<!-- Title: G Pages: 1 -->
<svg width="404pt" height="44pt"
 viewBox="0.00 0.00 404.00 44.00" xmlns="http://www.w3.org/2000/svg" xmlns:xlink="http://www.w3.org/1999/xlink">
<g id="graph1" class="graph" transform="scale(1 1) rotate(0) translate(4 40)">
<title>G</title>
<polygon fill="white" stroke="white" points="-4,5 -4,-40 401,-40 401,5 -4,5"/>
<!-- G9XoREygzcVaBST3CuMVQwwMSE5CYgBmGzJwCG9Z -->
<g id="node1" class="node"><title>G9XoREygzcVaBST3CuMVQwwMSE5CYgBmGzJwCG9Z</title>
<ellipse fill="none" stroke="black" cx="339" cy="-18" rx="55.8503" ry="18"/>
<text text-anchor="middle" x="339" y="-13.4" font-family="Times Roman,serif" font-size="14.00">algorithm</text>
</g>
<!-- OYJ6ZC7ZfzDzcSUFWelcFQSZ1BpgAbDllpJuDJeh -->
<g id="node2" class="node"><title>OYJ6ZC7ZfzDzcSUFWelcFQSZ1BpgAbDllpJuDJeh</title>
<ellipse fill="none" stroke="black" cx="196" cy="-18" rx="49.1393" ry="18"/>
<text text-anchor="middle" x="196" y="-13.4" font-family="Times Roman,serif" font-size="14.00">intuition</text>
</g>
<!-- OYJ6ZC7ZfzDzcSUFWelcFQSZ1BpgAbDllpJuDJeh&#45;&gt;G9XoREygzcVaBST3CuMVQwwMSE5CYgBmGzJwCG9Z -->
<g id="edge2" class="edge"><title>OYJ6ZC7ZfzDzcSUFWelcFQSZ1BpgAbDllpJuDJeh&#45;&gt;G9XoREygzcVaBST3CuMVQwwMSE5CYgBmGzJwCG9Z</title>
<path fill="none" stroke="black" d="M245.613,-18C254.17,-18 263.19,-18 272.114,-18"/>
<polygon fill="black" stroke="black" points="272.118,-21.5001 282.118,-18 272.118,-14.5001 272.118,-21.5001"/>
</g>
<!-- Mw3oQRGd4NOj55dLHkKhkXbsZc2tSBZ0FwEwak5w -->
<g id="node3" class="node"><title>Mw3oQRGd4NOj55dLHkKhkXbsZc2tSBZ0FwEwak5w</title>
<ellipse fill="none" stroke="black" cx="55" cy="-18" rx="55.0073" ry="18"/>
<text text-anchor="middle" x="55" y="-13.4" font-family="Times Roman,serif" font-size="14.00">deadline!</text>
</g>
<!-- Mw3oQRGd4NOj55dLHkKhkXbsZc2tSBZ0FwEwak5w&#45;&gt;OYJ6ZC7ZfzDzcSUFWelcFQSZ1BpgAbDllpJuDJeh -->
<g id="edge4" class="edge"><title>Mw3oQRGd4NOj55dLHkKhkXbsZc2tSBZ0FwEwak5w&#45;&gt;OYJ6ZC7ZfzDzcSUFWelcFQSZ1BpgAbDllpJuDJeh</title>
<path fill="none" stroke="black" d="M110.322,-18C118.769,-18 127.521,-18 136.062,-18"/>
<polygon fill="black" stroke="black" points="136.34,-21.5001 146.34,-18 136.34,-14.5001 136.34,-21.5001"/>
</g>
</g>
</svg>
