<?xml version="1.0" encoding="UTF-8" standalone="no"?>
<!DOCTYPE svg PUBLIC "-//W3C//DTD SVG 1.1//EN"
 "http://www.w3.org/Graphics/SVG/1.1/DTD/svg11.dtd">
<!-- Generated by graphviz version 2.22.2 (20090313.1817)
 -->
<!-- Title: Fz2695ukEVf4egTXWKY3KWOtCKysbadl2XD0b8FK Pages: 1 -->
<svg width="470pt" height="246pt"
 viewBox="0.00 0.00 470.46 246.00" xmlns="http://www.w3.org/2000/svg" xmlns:xlink="http://www.w3.org/1999/xlink">
<g id="graph1" class="graph" transform="scale(1 1) rotate(0) translate(4 242.004)">
<title>Fz2695ukEVf4egTXWKY3KWOtCKysbadl2XD0b8FK</title>
<a xlink:href="organdiae.svg">
<polygon fill="white" stroke="white" points="-4,5 -4,-242.004 467.462,-242.004 467.462,5 -4,5"/>
</a>
<!-- organize -->
<g id="node1" class="node"><title>organize</title>
<ellipse fill="none" stroke="black" cx="52.5" cy="-46.5734" rx="51.1517" ry="18"/>
<text text-anchor="middle" x="52.5" y="-41.9734" font-family="Times Roman,serif" font-size="14.00">organize</text>
</g>
<!-- DYWPfzbPYELkJp2IteBDzLLLx9pKk7patsD4aDOB -->
<g id="node5" class="node"><title>DYWPfzbPYELkJp2IteBDzLLLx9pKk7patsD4aDOB</title>
<ellipse fill="none" stroke="black" cx="137.567" cy="-103.505" rx="57.1889" ry="18"/>
<text text-anchor="middle" x="137.567" y="-98.9051" font-family="Times Roman,serif" font-size="14.00">Organdiæ</text>
</g>
<!-- organize&#45;&gt;DYWPfzbPYELkJp2IteBDzLLLx9pKk7patsD4aDOB -->
<g id="edge2" class="edge"><title>organize&#45;&gt;DYWPfzbPYELkJp2IteBDzLLLx9pKk7patsD4aDOB</title>
<path fill="none" stroke="black" d="M76.6492,-62.7354C85.3742,-68.5747 95.3771,-75.2693 104.721,-81.5229"/>
<polygon fill="black" stroke="black" points="102.805,-84.4517 113.062,-87.1049 106.698,-78.6343 102.805,-84.4517"/>
<text text-anchor="middle" x="98.6852" y="-54.5292" font-family="Times Roman,serif" font-size="14.00">root</text>
</g>
<!-- idea -->
<g id="node2" class="node"><title>idea</title>
<ellipse fill="none" stroke="black" cx="232.171" cy="-77.3237" rx="31.0281" ry="18"/>
<text text-anchor="middle" x="232.171" y="-72.7237" font-family="Times Roman,serif" font-size="14.00">idea</text>
</g>
<!-- idea&#45;&gt;DYWPfzbPYELkJp2IteBDzLLLx9pKk7patsD4aDOB -->
<g id="edge4" class="edge"><title>idea&#45;&gt;DYWPfzbPYELkJp2IteBDzLLLx9pKk7patsD4aDOB</title>
<path fill="none" stroke="black" d="M204.043,-85.1081C199.644,-86.3253 194.98,-87.6161 190.243,-88.9271"/>
<polygon fill="black" stroke="black" points="189.183,-85.5888 180.479,-91.6293 191.05,-92.3352 189.183,-85.5888"/>
<text text-anchor="middle" x="195.143" y="-71.4176" font-family="Times Roman,serif" font-size="14.00">root</text>
</g>
<!-- BDwaDh1Q4ObjQqXfpciofTzwAhRMqI4azRlFx0Ew -->
<g id="node3" class="node"><title>BDwaDh1Q4ObjQqXfpciofTzwAhRMqI4azRlFx0Ew</title>
<ellipse fill="none" stroke="black" cx="164.428" cy="-19" rx="83.1817" ry="18"/>
<text text-anchor="middle" x="164.428" y="-14.4" font-family="Times Roman,serif" font-size="14.00">precomposition</text>
</g>
<!-- BDwaDh1Q4ObjQqXfpciofTzwAhRMqI4azRlFx0Ew&#45;&gt;DYWPfzbPYELkJp2IteBDzLLLx9pKk7patsD4aDOB -->
<g id="edge10" class="edge"><title>BDwaDh1Q4ObjQqXfpciofTzwAhRMqI4azRlFx0Ew&#45;&gt;DYWPfzbPYELkJp2IteBDzLLLx9pKk7patsD4aDOB</title>
<path fill="none" stroke="black" d="M158.599,-37.3363C155.02,-48.5974 150.366,-63.2379 146.347,-75.8836"/>
<polygon fill="black" stroke="black" points="142.985,-74.9044 143.292,-85.4948 149.657,-77.025 142.985,-74.9044"/>
<text text-anchor="middle" x="134.473" y="-47.01" font-family="Times Roman,serif" font-size="14.00">usage</text>
</g>
<!-- GvW8R5jDxVzHBbB3srUYNHG7Kr9tixZk486sZSZm -->
<g id="node4" class="node"><title>GvW8R5jDxVzHBbB3srUYNHG7Kr9tixZk486sZSZm</title>
<ellipse fill="none" stroke="black" cx="192.931" cy="-172.543" rx="55.0073" ry="18"/>
<text text-anchor="middle" x="192.931" y="-167.943" font-family="Times Roman,serif" font-size="14.00">&#39;ɔr gən di</text>
</g>
<!-- GvW8R5jDxVzHBbB3srUYNHG7Kr9tixZk486sZSZm&#45;&gt;DYWPfzbPYELkJp2IteBDzLLLx9pKk7patsD4aDOB -->
<g id="edge8" class="edge"><title>GvW8R5jDxVzHBbB3srUYNHG7Kr9tixZk486sZSZm&#45;&gt;DYWPfzbPYELkJp2IteBDzLLLx9pKk7patsD4aDOB</title>
<path fill="none" stroke="black" d="M178.96,-155.122C172.649,-147.252 165.065,-137.795 158.122,-129.138"/>
<polygon fill="black" stroke="black" points="160.712,-126.773 151.726,-121.161 155.251,-131.152 160.712,-126.773"/>
<text text-anchor="middle" x="153.541" y="-149.53" font-family="Times Roman,serif" font-size="14.00">pronunciation</text>
</g>
<!-- organdie -->
<g id="node6" class="node"><title>organdie</title>
<ellipse fill="none" stroke="black" cx="55.2676" cy="-158.527" rx="51.8257" ry="18"/>
<text text-anchor="middle" x="55.2676" y="-153.927" font-family="Times Roman,serif" font-size="14.00">organdie</text>
</g>
<!-- organdie&#45;&gt;DYWPfzbPYELkJp2IteBDzLLLx9pKk7patsD4aDOB -->
<g id="edge6" class="edge"><title>organdie&#45;&gt;DYWPfzbPYELkJp2IteBDzLLLx9pKk7patsD4aDOB</title>
<path fill="none" stroke="black" d="M79.5149,-142.316C87.3976,-137.046 96.2819,-131.107 104.686,-125.488"/>
<polygon fill="black" stroke="black" points="106.84,-128.258 113.208,-119.79 102.95,-122.438 106.84,-128.258"/>
<text text-anchor="middle" x="100.101" y="-142.302" font-family="Times Roman,serif" font-size="14.00">root</text>
</g>
<!-- DlFYyFnfrfpygxAb84MMEZeOVyURgBrREQ8wdJgN -->
<g id="node7" class="node"><title>DlFYyFnfrfpygxAb84MMEZeOVyURgBrREQ8wdJgN</title>
<ellipse fill="none" stroke="black" cx="351.462" cy="-219.004" rx="110.015" ry="18"/>
<text text-anchor="middle" x="351.462" y="-214.404" font-family="Times Roman,serif" font-size="14.00">Wallace Stevens&#39;s jar</text>
</g>
</g>
</svg>
