<?xml version="1.0" encoding="UTF-8" standalone="no"?>
<!DOCTYPE svg PUBLIC "-//W3C//DTD SVG 1.1//EN"
 "http://www.w3.org/Graphics/SVG/1.1/DTD/svg11.dtd">
<!-- Generated by graphviz version 2.22.2 (20090313.1817)
 -->
<!-- Title: Jgf7obEfsACIpzcti4JPswlHljLuToQCbbmrLNlA Pages: 1 -->
<svg width="482pt" height="209pt"
 viewBox="0.00 0.00 482.00 208.71" xmlns="http://www.w3.org/2000/svg" xmlns:xlink="http://www.w3.org/1999/xlink">
<g id="graph1" class="graph" transform="scale(0.364875 0.364875) rotate(0) translate(4 568)">
<title>Jgf7obEfsACIpzcti4JPswlHljLuToQCbbmrLNlA</title>
<a xlink:href="rudiments.svg">
<polygon fill="white" stroke="white" points="-4,5 -4,-568 1318,-568 1318,5 -4,5"/>
</a>
<!-- HbCYpb2SLA3t5Bys00XPuEtY74fX1YDj0ZLZkU2f -->
<g id="node1" class="node"><title>HbCYpb2SLA3t5Bys00XPuEtY74fX1YDj0ZLZkU2f</title>
<ellipse fill="none" stroke="black" cx="263" cy="-458" rx="140.872" ry="18"/>
<text text-anchor="middle" x="263" y="-453.4" font-family="Times Roman,serif" font-size="14.00">single drag (hash 7756304)</text>
</g>
<!-- Bt2TgKXdNPxRftPJw9dXj49IxsUIzgjFhBRMPjW7 -->
<g id="node2" class="node"><title>Bt2TgKXdNPxRftPJw9dXj49IxsUIzgjFhBRMPjW7</title>
<ellipse fill="none" stroke="black" cx="526" cy="-458" rx="104.147" ry="18"/>
<text text-anchor="middle" x="526" y="-453.4" font-family="Times Roman,serif" font-size="14.00">ruff (hash 7757712)</text>
</g>
<!-- PeoT3CrWw6Qsmqd5IMAM7q9Y7zjQtb4tl0kCeh1d -->
<g id="node9" class="node"><title>PeoT3CrWw6Qsmqd5IMAM7q9Y7zjQtb4tl0kCeh1d</title>
<ellipse fill="none" stroke="black" cx="169" cy="-370" rx="169.217" ry="18"/>
<text text-anchor="middle" x="169" y="-365.4" font-family="Times Roman,serif" font-size="14.00">single paradiddle (hash 7786928)</text>
</g>
<!-- Bt2TgKXdNPxRftPJw9dXj49IxsUIzgjFhBRMPjW7&#45;&gt;PeoT3CrWw6Qsmqd5IMAM7q9Y7zjQtb4tl0kCeh1d -->
<g id="edge16" class="edge"><title>Bt2TgKXdNPxRftPJw9dXj49IxsUIzgjFhBRMPjW7&#45;&gt;PeoT3CrWw6Qsmqd5IMAM7q9Y7zjQtb4tl0kCeh1d</title>
<path fill="none" stroke="black" d="M465.844,-443.172C405.36,-428.262 311.882,-405.22 246.014,-388.984"/>
<polygon fill="black" stroke="black" points="246.644,-385.534 236.097,-386.539 244.968,-392.331 246.644,-385.534"/>
<text text-anchor="middle" x="403" y="-409.4" font-family="Times Roman,serif" font-size="14.00">follows</text>
</g>
<!-- Qqgu9in0KLZST3kofbvWEkeueUOThwpPU1KzLMEI -->
<g id="node10" class="node"><title>Qqgu9in0KLZST3kofbvWEkeueUOThwpPU1KzLMEI</title>
<ellipse fill="none" stroke="black" cx="526" cy="-370" rx="169.889" ry="18"/>
<text text-anchor="middle" x="526" y="-365.4" font-family="Times Roman,serif" font-size="14.00">single ratamacue (hash 7787056)</text>
</g>
<!-- Bt2TgKXdNPxRftPJw9dXj49IxsUIzgjFhBRMPjW7&#45;&gt;Qqgu9in0KLZST3kofbvWEkeueUOThwpPU1KzLMEI -->
<g id="edge12" class="edge"><title>Bt2TgKXdNPxRftPJw9dXj49IxsUIzgjFhBRMPjW7&#45;&gt;Qqgu9in0KLZST3kofbvWEkeueUOThwpPU1KzLMEI</title>
<path fill="none" stroke="black" d="M526,-439.766C526,-427.849 526,-412.038 526,-398.482"/>
<polygon fill="black" stroke="black" points="529.5,-398.21 526,-388.21 522.5,-398.21 529.5,-398.21"/>
<text text-anchor="middle" x="550" y="-409.4" font-family="Times Roman,serif" font-size="14.00">follows</text>
</g>
<!-- CP5kJxkMq0Vl3nziAt6p5IgYQXbNLWT7ZFYmDM9Y -->
<g id="node13" class="node"><title>CP5kJxkMq0Vl3nziAt6p5IgYQXbNLWT7ZFYmDM9Y</title>
<ellipse fill="none" stroke="black" cx="823" cy="-370" rx="108.844" ry="18"/>
<text text-anchor="middle" x="823" y="-365.4" font-family="Times Roman,serif" font-size="14.00">flam (hash 7787248)</text>
</g>
<!-- Bt2TgKXdNPxRftPJw9dXj49IxsUIzgjFhBRMPjW7&#45;&gt;CP5kJxkMq0Vl3nziAt6p5IgYQXbNLWT7ZFYmDM9Y -->
<g id="edge24" class="edge"><title>Bt2TgKXdNPxRftPJw9dXj49IxsUIzgjFhBRMPjW7&#45;&gt;CP5kJxkMq0Vl3nziAt6p5IgYQXbNLWT7ZFYmDM9Y</title>
<path fill="none" stroke="black" d="M578.755,-442.369C629.442,-427.351 706.071,-404.646 759.951,-388.681"/>
<polygon fill="black" stroke="black" points="761.142,-391.979 769.736,-385.782 759.153,-385.267 761.142,-391.979"/>
<text text-anchor="middle" x="725" y="-409.4" font-family="Times Roman,serif" font-size="14.00">follows</text>
</g>
<!-- XsIPBoMtCzZE6SmR1U2negQvgdD1igyrd0JZoZdM -->
<g id="node3" class="node"><title>XsIPBoMtCzZE6SmR1U2negQvgdD1igyrd0JZoZdM</title>
<ellipse fill="none" stroke="black" cx="731" cy="-282" rx="169.889" ry="18"/>
<text text-anchor="middle" x="731" y="-277.4" font-family="Times Roman,serif" font-size="14.00">single ratamacue (hash 7788496)</text>
</g>
<!-- RjpcHdFzcw6W0enMzdOBwr7ETc9TYpSAglnFuyEt -->
<g id="node4" class="node"><title>RjpcHdFzcw6W0enMzdOBwr7ETc9TYpSAglnFuyEt</title>
<ellipse fill="none" stroke="black" cx="1060" cy="-282" rx="140.872" ry="18"/>
<text text-anchor="middle" x="1060" y="-277.4" font-family="Times Roman,serif" font-size="14.00">single drag (hash 7788528)</text>
</g>
<!-- BWr3dYBxrOoxfElLb1aBjaFcmp8fUKzfN9HNWapC -->
<g id="node12" class="node"><title>BWr3dYBxrOoxfElLb1aBjaFcmp8fUKzfN9HNWapC</title>
<ellipse fill="none" stroke="black" cx="1060" cy="-194" rx="108.844" ry="18"/>
<text text-anchor="middle" x="1060" y="-189.4" font-family="Times Roman,serif" font-size="14.00">flam (hash 7788176)</text>
</g>
<!-- RjpcHdFzcw6W0enMzdOBwr7ETc9TYpSAglnFuyEt&#45;&gt;BWr3dYBxrOoxfElLb1aBjaFcmp8fUKzfN9HNWapC -->
<g id="edge2" class="edge"><title>RjpcHdFzcw6W0enMzdOBwr7ETc9TYpSAglnFuyEt&#45;&gt;BWr3dYBxrOoxfElLb1aBjaFcmp8fUKzfN9HNWapC</title>
<path fill="none" stroke="black" d="M1060,-263.766C1060,-251.849 1060,-236.038 1060,-222.482"/>
<polygon fill="black" stroke="black" points="1063.5,-222.21 1060,-212.21 1056.5,-222.21 1063.5,-222.21"/>
<text text-anchor="middle" x="1084" y="-233.4" font-family="Times Roman,serif" font-size="14.00">follows</text>
</g>
<!-- S55i9Ldb0aaL4wllGVLONzS5UbHwwfvGdaem2NbW -->
<g id="node5" class="node"><title>S55i9Ldb0aaL4wllGVLONzS5UbHwwfvGdaem2NbW</title>
<ellipse fill="none" stroke="black" cx="814" cy="-106" rx="140.872" ry="18"/>
<text text-anchor="middle" x="814" y="-101.4" font-family="Times Roman,serif" font-size="14.00">single drag (hash 7786832)</text>
</g>
<!-- E4IYRy4LGO856Sr962GANP6321E7hB1ro2oZtLNO -->
<g id="node6" class="node"><title>E4IYRy4LGO856Sr962GANP6321E7hB1ro2oZtLNO</title>
<ellipse fill="none" stroke="black" cx="814" cy="-18" rx="104.147" ry="18"/>
<text text-anchor="middle" x="814" y="-13.4" font-family="Times Roman,serif" font-size="14.00">ruff (hash 7787152)</text>
</g>
<!-- S55i9Ldb0aaL4wllGVLONzS5UbHwwfvGdaem2NbW&#45;&gt;E4IYRy4LGO856Sr962GANP6321E7hB1ro2oZtLNO -->
<g id="edge6" class="edge"><title>S55i9Ldb0aaL4wllGVLONzS5UbHwwfvGdaem2NbW&#45;&gt;E4IYRy4LGO856Sr962GANP6321E7hB1ro2oZtLNO</title>
<path fill="none" stroke="black" d="M814,-87.7663C814,-75.8492 814,-60.0384 814,-46.4817"/>
<polygon fill="black" stroke="black" points="817.5,-46.2103 814,-36.2103 810.5,-46.2103 817.5,-46.2103"/>
<text text-anchor="middle" x="838" y="-57.4" font-family="Times Roman,serif" font-size="14.00">follows</text>
</g>
<!-- W3WkrXcMiYwsIREEd7LkTxDs2tAbteGUC6Gxas59 -->
<g id="node7" class="node"><title>W3WkrXcMiYwsIREEd7LkTxDs2tAbteGUC6Gxas59</title>
<ellipse fill="none" stroke="black" cx="1143" cy="-106" rx="169.889" ry="18"/>
<text text-anchor="middle" x="1143" y="-101.4" font-family="Times Roman,serif" font-size="14.00">single ratamacue (hash 7786800)</text>
</g>
<!-- CcdlqHVQvfMWUFGu30HmycbGBGrYn99K6hl3ToUH -->
<g id="node8" class="node"><title>CcdlqHVQvfMWUFGu30HmycbGBGrYn99K6hl3ToUH</title>
<ellipse fill="none" stroke="black" cx="346" cy="-546" rx="108.844" ry="18"/>
<text text-anchor="middle" x="346" y="-541.4" font-family="Times Roman,serif" font-size="14.00">flam (hash 7756464)</text>
</g>
<!-- CcdlqHVQvfMWUFGu30HmycbGBGrYn99K6hl3ToUH&#45;&gt;HbCYpb2SLA3t5Bys00XPuEtY74fX1YDj0ZLZkU2f -->
<g id="edge14" class="edge"><title>CcdlqHVQvfMWUFGu30HmycbGBGrYn99K6hl3ToUH&#45;&gt;HbCYpb2SLA3t5Bys00XPuEtY74fX1YDj0ZLZkU2f</title>
<path fill="none" stroke="black" d="M329.204,-528.192C317.134,-515.395 300.68,-497.95 287.195,-483.653"/>
<polygon fill="black" stroke="black" points="289.464,-480.957 280.056,-476.084 284.371,-485.76 289.464,-480.957"/>
<text text-anchor="middle" x="335" y="-497.4" font-family="Times Roman,serif" font-size="14.00">follows</text>
</g>
<!-- CcdlqHVQvfMWUFGu30HmycbGBGrYn99K6hl3ToUH&#45;&gt;Bt2TgKXdNPxRftPJw9dXj49IxsUIzgjFhBRMPjW7 -->
<g id="edge4" class="edge"><title>CcdlqHVQvfMWUFGu30HmycbGBGrYn99K6hl3ToUH&#45;&gt;Bt2TgKXdNPxRftPJw9dXj49IxsUIzgjFhBRMPjW7</title>
<path fill="none" stroke="black" d="M381.133,-528.824C409.969,-514.726 450.956,-494.688 481.978,-479.522"/>
<polygon fill="black" stroke="black" points="483.815,-482.52 491.262,-474.983 480.741,-476.231 483.815,-482.52"/>
<text text-anchor="middle" x="476" y="-497.4" font-family="Times Roman,serif" font-size="14.00">follows</text>
</g>
<!-- PzoUGXI4XWH603vLXmn9hy8xJDf55YH7NvUiFRYM -->
<g id="node11" class="node"><title>PzoUGXI4XWH603vLXmn9hy8xJDf55YH7NvUiFRYM</title>
<ellipse fill="none" stroke="black" cx="169" cy="-282" rx="169.217" ry="18"/>
<text text-anchor="middle" x="169" y="-277.4" font-family="Times Roman,serif" font-size="14.00">single paradiddle (hash 7787120)</text>
</g>
<!-- PeoT3CrWw6Qsmqd5IMAM7q9Y7zjQtb4tl0kCeh1d&#45;&gt;PzoUGXI4XWH603vLXmn9hy8xJDf55YH7NvUiFRYM -->
<g id="edge20" class="edge"><title>PeoT3CrWw6Qsmqd5IMAM7q9Y7zjQtb4tl0kCeh1d&#45;&gt;PzoUGXI4XWH603vLXmn9hy8xJDf55YH7NvUiFRYM</title>
<path fill="none" stroke="black" d="M169,-351.766C169,-339.849 169,-324.038 169,-310.482"/>
<polygon fill="black" stroke="black" points="172.5,-310.21 169,-300.21 165.5,-310.21 172.5,-310.21"/>
<text text-anchor="middle" x="193" y="-321.4" font-family="Times Roman,serif" font-size="14.00">follows</text>
</g>
<!-- BWr3dYBxrOoxfElLb1aBjaFcmp8fUKzfN9HNWapC&#45;&gt;S55i9Ldb0aaL4wllGVLONzS5UbHwwfvGdaem2NbW -->
<g id="edge22" class="edge"><title>BWr3dYBxrOoxfElLb1aBjaFcmp8fUKzfN9HNWapC&#45;&gt;S55i9Ldb0aaL4wllGVLONzS5UbHwwfvGdaem2NbW</title>
<path fill="none" stroke="black" d="M1014.31,-177.654C973.873,-163.19 914.698,-142.022 871.145,-126.442"/>
<polygon fill="black" stroke="black" points="872.141,-123.081 861.546,-123.008 869.783,-129.672 872.141,-123.081"/>
<text text-anchor="middle" x="983" y="-145.4" font-family="Times Roman,serif" font-size="14.00">follows</text>
</g>
<!-- BWr3dYBxrOoxfElLb1aBjaFcmp8fUKzfN9HNWapC&#45;&gt;W3WkrXcMiYwsIREEd7LkTxDs2tAbteGUC6Gxas59 -->
<g id="edge10" class="edge"><title>BWr3dYBxrOoxfElLb1aBjaFcmp8fUKzfN9HNWapC&#45;&gt;W3WkrXcMiYwsIREEd7LkTxDs2tAbteGUC6Gxas59</title>
<path fill="none" stroke="black" d="M1076.8,-176.192C1088.87,-163.395 1105.32,-145.95 1118.8,-131.653"/>
<polygon fill="black" stroke="black" points="1121.63,-133.76 1125.94,-124.084 1116.54,-128.957 1121.63,-133.76"/>
<text text-anchor="middle" x="1132" y="-145.4" font-family="Times Roman,serif" font-size="14.00">follows</text>
</g>
<!-- CP5kJxkMq0Vl3nziAt6p5IgYQXbNLWT7ZFYmDM9Y&#45;&gt;XsIPBoMtCzZE6SmR1U2negQvgdD1igyrd0JZoZdM -->
<g id="edge8" class="edge"><title>CP5kJxkMq0Vl3nziAt6p5IgYQXbNLWT7ZFYmDM9Y&#45;&gt;XsIPBoMtCzZE6SmR1U2negQvgdD1igyrd0JZoZdM</title>
<path fill="none" stroke="black" d="M804.382,-352.192C790.88,-339.276 772.427,-321.626 757.405,-307.257"/>
<polygon fill="black" stroke="black" points="759.551,-304.467 749.906,-300.084 754.713,-309.525 759.551,-304.467"/>
<text text-anchor="middle" x="809" y="-321.4" font-family="Times Roman,serif" font-size="14.00">follows</text>
</g>
<!-- CP5kJxkMq0Vl3nziAt6p5IgYQXbNLWT7ZFYmDM9Y&#45;&gt;RjpcHdFzcw6W0enMzdOBwr7ETc9TYpSAglnFuyEt -->
<g id="edge18" class="edge"><title>CP5kJxkMq0Vl3nziAt6p5IgYQXbNLWT7ZFYmDM9Y&#45;&gt;RjpcHdFzcw6W0enMzdOBwr7ETc9TYpSAglnFuyEt</title>
<path fill="none" stroke="black" d="M867.3,-353.551C906.08,-339.152 962.601,-318.165 1004.41,-302.641"/>
<polygon fill="black" stroke="black" points="1005.74,-305.881 1013.9,-299.119 1003.3,-299.319 1005.74,-305.881"/>
<text text-anchor="middle" x="986" y="-321.4" font-family="Times Roman,serif" font-size="14.00">follows</text>
</g>
</g>
</svg>
