<?xml version="1.0" encoding="UTF-8" standalone="no"?>
<!DOCTYPE svg PUBLIC "-//W3C//DTD SVG 1.1//EN"
 "http://www.w3.org/Graphics/SVG/1.1/DTD/svg11.dtd">
<!-- Generated by graphviz version 2.22.2 (20090313.1817)
 -->
<!-- Title: Klyh4TQUILGlZys4lHMlcXAL5b57ClBt4ZVyKJgc Pages: 1 -->
<svg width="352pt" height="220pt"
 viewBox="0.00 0.00 352.00 220.00" xmlns="http://www.w3.org/2000/svg" xmlns:xlink="http://www.w3.org/1999/xlink">
<g id="graph1" class="graph" transform="scale(1 1) rotate(0) translate(4 216)">
<title>Klyh4TQUILGlZys4lHMlcXAL5b57ClBt4ZVyKJgc</title>
<a xlink:href="states.svg">
<polygon fill="white" stroke="white" points="-4,5 -4,-216 349,-216 349,5 -4,5"/>
</a>
<!-- XfpbpBBkwxBQQPGIdTyruBVC6K5c3XN8QmSQQWiG -->
<g id="node1" class="node"><title>XfpbpBBkwxBQQPGIdTyruBVC6K5c3XN8QmSQQWiG</title>
<ellipse fill="none" stroke="black" cx="125" cy="-194" rx="40.92" ry="18"/>
<text text-anchor="middle" x="125" y="-189.4" font-family="Times Roman,serif" font-size="14.00">state1</text>
</g>
<!-- ANj1JgPmggluMSaEMXJRIv3RV0Da5aWZqdHKhnwS -->
<g id="node2" class="node"><title>ANj1JgPmggluMSaEMXJRIv3RV0Da5aWZqdHKhnwS</title>
<ellipse fill="none" stroke="black" cx="41" cy="-106" rx="40.92" ry="18"/>
<text text-anchor="middle" x="41" y="-101.4" font-family="Times Roman,serif" font-size="14.00">state2</text>
</g>
<!-- XfpbpBBkwxBQQPGIdTyruBVC6K5c3XN8QmSQQWiG&#45;&gt;ANj1JgPmggluMSaEMXJRIv3RV0Da5aWZqdHKhnwS -->
<g id="edge2" class="edge"><title>XfpbpBBkwxBQQPGIdTyruBVC6K5c3XN8QmSQQWiG&#45;&gt;ANj1JgPmggluMSaEMXJRIv3RV0Da5aWZqdHKhnwS</title>
<path fill="none" stroke="black" d="M86.7814,-187.056C70.1353,-181.946 52.1427,-173.136 42,-158 37.4054,-151.144 35.9644,-142.554 36.0107,-134.343"/>
<polygon fill="black" stroke="black" points="39.5062,-134.531 36.7393,-124.304 32.5245,-134.024 39.5062,-134.531"/>
<text text-anchor="middle" x="115" y="-145.4" font-family="Times Roman,serif" font-size="14.00">weighted connection</text>
</g>
<!-- PEBcejeXZ5eTC5cqjOfgkF0qlZWQhe9g2sGlc0M7 -->
<g id="node3" class="node"><title>PEBcejeXZ5eTC5cqjOfgkF0qlZWQhe9g2sGlc0M7</title>
<ellipse fill="none" stroke="black" cx="210" cy="-106" rx="40.92" ry="18"/>
<text text-anchor="middle" x="210" y="-101.4" font-family="Times Roman,serif" font-size="14.00">state3</text>
</g>
<!-- XfpbpBBkwxBQQPGIdTyruBVC6K5c3XN8QmSQQWiG&#45;&gt;PEBcejeXZ5eTC5cqjOfgkF0qlZWQhe9g2sGlc0M7 -->
<g id="edge4" class="edge"><title>XfpbpBBkwxBQQPGIdTyruBVC6K5c3XN8QmSQQWiG&#45;&gt;PEBcejeXZ5eTC5cqjOfgkF0qlZWQhe9g2sGlc0M7</title>
<path fill="none" stroke="black" d="M155.411,-181.691C166.811,-175.875 179.136,-167.986 188,-158 194.174,-151.045 198.793,-142.103 202.162,-133.602"/>
<polygon fill="black" stroke="black" points="205.534,-134.565 205.561,-123.97 198.933,-132.236 205.534,-134.565"/>
<text text-anchor="middle" x="271" y="-145.4" font-family="Times Roman,serif" font-size="14.00">weighted connection</text>
</g>
<!-- NhOfolBMPPrgc2fDVAZojNiaRNLCuKAhWmqeIPGS -->
<g id="node4" class="node"><title>NhOfolBMPPrgc2fDVAZojNiaRNLCuKAhWmqeIPGS</title>
<ellipse fill="none" stroke="black" cx="41" cy="-18" rx="40.92" ry="18"/>
<text text-anchor="middle" x="41" y="-13.4" font-family="Times Roman,serif" font-size="14.00">state4</text>
</g>
<!-- ANj1JgPmggluMSaEMXJRIv3RV0Da5aWZqdHKhnwS&#45;&gt;NhOfolBMPPrgc2fDVAZojNiaRNLCuKAhWmqeIPGS -->
<g id="edge6" class="edge"><title>ANj1JgPmggluMSaEMXJRIv3RV0Da5aWZqdHKhnwS&#45;&gt;NhOfolBMPPrgc2fDVAZojNiaRNLCuKAhWmqeIPGS</title>
<path fill="none" stroke="black" d="M41,-87.7663C41,-75.8492 41,-60.0384 41,-46.4817"/>
<polygon fill="black" stroke="black" points="44.5001,-46.2103 41,-36.2103 37.5001,-46.2103 44.5001,-46.2103"/>
<text text-anchor="middle" x="114" y="-57.4" font-family="Times Roman,serif" font-size="14.00">weighted connection</text>
</g>
</g>
</svg>
