<?xml version="1.0" encoding="UTF-8" standalone="no"?>
<!DOCTYPE svg PUBLIC "-//W3C//DTD SVG 1.1//EN"
 "http://www.w3.org/Graphics/SVG/1.1/DTD/svg11.dtd">
<!-- Generated by graphviz version 2.22.2 (20090313.1817)
 -->
<!-- Title: Z8AAqhe347LoMhn3JrgnXC0hghVoPhaOD1k8l8tX Pages: 1 -->
<svg width="220pt" height="396pt"
 viewBox="0.00 0.00 220.00 396.00" xmlns="http://www.w3.org/2000/svg" xmlns:xlink="http://www.w3.org/1999/xlink">
<g id="graph1" class="graph" transform="scale(1 1) rotate(0) translate(4 392)">
<title>Z8AAqhe347LoMhn3JrgnXC0hghVoPhaOD1k8l8tX</title>
<a xlink:href="words.svg">
<polygon fill="white" stroke="white" points="-4,5 -4,-392 217,-392 217,5 -4,5"/>
</a>
<!-- shells -->
<g id="node1" class="node"><title>shells</title>
<ellipse fill="none" stroke="black" cx="62" cy="-370" rx="37.0651" ry="18"/>
<text text-anchor="middle" x="62" y="-365.4" font-family="Times Roman,serif" font-size="14.00">shells</text>
</g>
<!-- by -->
<g id="node2" class="node"><title>by</title>
<ellipse fill="none" stroke="black" cx="27" cy="-282" rx="27" ry="18"/>
<text text-anchor="middle" x="27" y="-277.4" font-family="Times Roman,serif" font-size="14.00">by</text>
</g>
<!-- shells&#45;&gt;by -->
<g id="edge6" class="edge"><title>shells&#45;&gt;by</title>
<path fill="none" stroke="black" d="M46.307,-353.604C41.615,-347.823 36.942,-341.009 34,-334 30.9459,-326.724 29.1571,-318.418 28.1271,-310.613"/>
<polygon fill="black" stroke="black" points="31.5883,-310.04 27.1453,-300.422 24.6206,-310.712 31.5883,-310.04"/>
<text text-anchor="middle" x="58" y="-321.4" font-family="Times Roman,serif" font-size="14.00">follows</text>
</g>
<!-- the -->
<g id="node4" class="node"><title>the</title>
<ellipse fill="none" stroke="black" cx="27" cy="-194" rx="27" ry="18"/>
<text text-anchor="middle" x="27" y="-189.4" font-family="Times Roman,serif" font-size="14.00">the</text>
</g>
<!-- by&#45;&gt;the -->
<g id="edge12" class="edge"><title>by&#45;&gt;the</title>
<path fill="none" stroke="black" d="M26.393,-263.688C26.2315,-258.019 26.0799,-251.752 26,-246 25.8943,-238.391 25.9666,-230.155 26.1112,-222.531"/>
<polygon fill="black" stroke="black" points="29.6159,-222.369 26.3526,-212.289 22.6178,-222.204 29.6159,-222.369"/>
<text text-anchor="middle" x="50" y="-233.4" font-family="Times Roman,serif" font-size="14.00">follows</text>
</g>
<!-- he -->
<g id="node3" class="node"><title>he</title>
<ellipse fill="none" stroke="black" cx="167" cy="-282" rx="27" ry="18"/>
<text text-anchor="middle" x="167" y="-277.4" font-family="Times Roman,serif" font-size="14.00">he</text>
</g>
<!-- sells -->
<g id="node6" class="node"><title>sells</title>
<ellipse fill="none" stroke="black" cx="161" cy="-194" rx="31.0281" ry="18"/>
<text text-anchor="middle" x="161" y="-189.4" font-family="Times Roman,serif" font-size="14.00">sells</text>
</g>
<!-- he&#45;&gt;sells -->
<g id="edge10" class="edge"><title>he&#45;&gt;sells</title>
<path fill="none" stroke="black" d="M165.757,-263.766C164.944,-251.849 163.866,-236.038 162.942,-222.482"/>
<polygon fill="black" stroke="black" points="166.414,-221.949 162.242,-212.21 159.43,-222.425 166.414,-221.949"/>
<text text-anchor="middle" x="188" y="-233.4" font-family="Times Roman,serif" font-size="14.00">follows</text>
</g>
<!-- sea -->
<g id="node7" class="node"><title>sea</title>
<ellipse fill="none" stroke="black" cx="96" cy="-106" rx="27.0036" ry="18"/>
<text text-anchor="middle" x="96" y="-101.4" font-family="Times Roman,serif" font-size="14.00">sea</text>
</g>
<!-- the&#45;&gt;sea -->
<g id="edge14" class="edge"><title>the&#45;&gt;sea</title>
<path fill="none" stroke="black" d="M25.6351,-175.764C25.7165,-165.1 27.4188,-151.845 34,-142 40.8482,-131.756 51.6719,-124.051 62.3722,-118.454"/>
<polygon fill="black" stroke="black" points="64.0997,-121.508 71.6407,-114.066 61.1047,-115.181 64.0997,-121.508"/>
<text text-anchor="middle" x="58" y="-145.4" font-family="Times Roman,serif" font-size="14.00">follows</text>
</g>
<!-- shore -->
<g id="node5" class="node"><title>shore</title>
<ellipse fill="none" stroke="black" cx="96" cy="-18" rx="36.8951" ry="18"/>
<text text-anchor="middle" x="96" y="-13.4" font-family="Times Roman,serif" font-size="14.00">shore</text>
</g>
<!-- sells&#45;&gt;sea -->
<g id="edge2" class="edge"><title>sells&#45;&gt;sea</title>
<path fill="none" stroke="black" d="M148.774,-177.448C138.998,-164.213 125.147,-145.461 114.088,-130.489"/>
<polygon fill="black" stroke="black" points="116.708,-128.145 107.952,-122.181 111.078,-132.304 116.708,-128.145"/>
<text text-anchor="middle" x="158" y="-145.4" font-family="Times Roman,serif" font-size="14.00">follows</text>
</g>
<!-- sea&#45;&gt;shells -->
<g id="edge8" class="edge"><title>sea&#45;&gt;shells</title>
<path fill="none" stroke="black" d="M97.5603,-124.2C100.352,-163.456 104.018,-258.627 82,-334 81.0577,-337.226 79.7873,-340.48 78.341,-343.644"/>
<polygon fill="black" stroke="black" points="75.1178,-342.258 73.6267,-352.747 81.3336,-345.477 75.1178,-342.258"/>
<text text-anchor="middle" x="122" y="-233.4" font-family="Times Roman,serif" font-size="14.00">follows</text>
</g>
<!-- sea&#45;&gt;shore -->
<g id="edge4" class="edge"><title>sea&#45;&gt;shore</title>
<path fill="none" stroke="black" d="M96,-87.7663C96,-75.8492 96,-60.0384 96,-46.4817"/>
<polygon fill="black" stroke="black" points="99.5001,-46.2103 96,-36.2103 92.5001,-46.2103 99.5001,-46.2103"/>
<text text-anchor="middle" x="120" y="-57.4" font-family="Times Roman,serif" font-size="14.00">follows</text>
</g>
</g>
</svg>
